{
    "asset" : {
        "generator" : "Khronos glTF Blender I/O v3.2.43",
        "version" : "2.0"
    },
    "scene" : 0,
    "scenes" : [
        {
            "name" : "Scene",
            "nodes" : [
                0
            ]
        }
    ],
    "nodes" : [
        {
            "mesh" : 0,
            "name" : "prototype_stairs_2x1x1"
        }
    ],
    "materials" : [
        {
            "doubleSided" : true,
            "name" : "MAT_Prototype_Blue",
            "pbrMetallicRoughness" : {}
        }
    ],
    "meshes" : [
        {
            "name" : "prototype_stairs_2x1x1",
            "primitives" : [
                {
                    "attributes" : {
                        "POSITION" : 0,
                        "NORMAL" : 1,
                        "TEXCOORD_0" : 2
                    },
                    "indices" : 3,
                    "material" : 0
                }
            ]
        }
    ],
    "accessors" : [
        {
            "bufferView" : 0,
            "componentType" : 5126,
            "count" : 87,
            "max" : [
                0.5,
                1,
                1.6292068494294654e-07
            ],
            "min" : [
                -0.5000006556510925,
                0,
                -2.000000238418579
            ],
            "type" : "VEC3"
        },
        {
            "bufferView" : 1,
            "componentType" : 5126,
            "count" : 87,
            "type" : "VEC3"
        },
        {
            "bufferView" : 2,
            "componentType" : 5126,
            "count" : 87,
            "type" : "VEC2"
        },
        {
            "bufferView" : 3,
            "componentType" : 5123,
            "count" : 108,
            "type" : "SCALAR"
        }
    ],
    "bufferViews" : [
        {
            "buffer" : 0,
            "byteLength" : 1044,
            "byteOffset" : 0
        },
        {
            "buffer" : 0,
            "byteLength" : 1044,
            "byteOffset" : 1044
        },
        {
            "buffer" : 0,
            "byteLength" : 696,
            "byteOffset" : 2088
        },
        {
            "buffer" : 0,
            "byteLength" : 216,
            "byteOffset" : 2784
        }
    ],
    "buffers" : [
        {
            "byteLength" : 3000,
            "uri" : "data:application/octet-stream;base64,"
        }
    ]
}
